<?xml version="1.0" encoding="iso-8859-1"?>
<!-- Generator: Adobe Illustrator 19.0.0, SVG Export Plug-In . SVG Version: 6.00 Build 0)  -->
<svg xmlns="http://www.w3.org/2000/svg" xmlns:xlink="http://www.w3.org/1999/xlink" version="1.1" id="Layer_1" x="0px" y="0px" viewBox="0 0 512.001 512.001" style="enable-background:new 0 0 512.001 512.001;" xml:space="preserve" width="512px" height="512px">
<g>
	<g>
		<path d="M505.815,258.879c0.014-8.66-0.496-17.305-2.251-25.804c-0.826-3.997-2.025-7.917-2.199-12.012    c-0.187-4.394,0.131-8.35-2.576-12.14c-3.561-4.984-9.627-6.291-15.427-6.518c0.272-1.505-0.371-3.042-0.862-4.977    c-1.183-4.667-1.251-9.185-1.069-14.009c0.165-4.384,0.717-8.772,0.246-13.148c-0.928-8.639-4.033-16.893-4.556-25.583    c-0.501-8.329,4.211-32.576-11.746-26.378c-3.57,1.386-5.637,4.299-8.723,6.34c-0.181,0.12-0.374,0.217-0.559,0.328    c-0.857-5.774-3.854-11.901-7.487-15.434c-1.385-1.347-3.343-1.182-4.752,0c-12.073,10.134-26.661,15.871-40.888,22.501    c-7.697,3.586-16,5.544-23.602,9.387c-3.123,1.579-6.474,2.514-9.574,4.167c-1.485,0.792-2.884,1.729-4.302,2.612    c0.09-0.464,0.198-0.933,0.345-1.414c0.68-2.194,1.364-4.341,1.879-6.586c1.186-5.184,1.901-11.43-0.577-15.308    c0.114-0.541,0.23-1.073,0.371-1.572c1.256,0.963,3.089,1.302,4.806,0.577c5.005-2.114,7.853-7.459,10.79-11.777    c3.089-4.544,6.095-8.698,8.089-13.864c2.041-5.29,4.568-10.856,4.482-16.612c-0.047-3.105-0.154-5.576,0.569-8.622    c0.661-2.785,1.202-5.575,1.001-8.444c-0.826-11.755-8.586-21.29-15.486-30.144c-3.608-4.629-8.18-8.701-10.762-14.042    c-2.307-4.771-3.258-9.807-6.796-13.921c-1.956-2.272-6.336-1.137-6.903,1.823c-0.573,2.984-0.616,5.571-2.384,8.081    c-1.488,2.112-3.45,4.104-5.258,5.944c-3.785,3.851-8.285,6.885-12.017,10.779c-7.438,7.759-13.678,16.13-19.365,25.215    c-5.46,8.721-9.386,18.874-8.846,29.32c0.288,5.578,2.172,10.563,3.785,15.848c0.732,2.395,0.713,4.921,1.508,7.252    c0.338,0.991,0.847,1.753,1.399,2.487c-0.876,0.072-1.711,0.4-2.291,1.128c-2.443,3.053-4.332,6.304-5.918,9.876    c-1.548,3.485-1.847,7.268-3.32,10.735c-3.042,7.158-5.101,13.858-6.008,21.421c-10.48-0.361-20.658-3.06-31.202-2.147    c-5.524,0.479-10.706,2.095-16.281,2.135c-0.109,0.001-0.217,0.003-0.326,0.003c5.307-3.457,7.008-11.252,10.663-16.602    c1.651-2.417,3.162-4.686,4.125-7.485c1.01-2.933,1.241-4.971,3.167-7.431c3.549-4.535,4.333-9.876,6.833-14.985    c5.623-11.495,12.966-22.176,17.682-34.138c3.649-9.254-6.822-11.688-13.966-12.223c-11.935-0.895-23.834-3.487-35.706-4.913    c-9.642-1.157-11.349,7.52-15.907,14.033c-3.167,4.523-5.757,10.065-8.412,14.929c-0.604,1.109-1.172,2.237-1.74,3.364    c-1.354-2.708-2.775-5.309-3.653-7.627c-2.099-5.55-5.198-8.071-10.856-7.726c0.713-5.247-0.206-10.217-2.865-15.66    c-1.827-3.739-3.787-6.978-4.904-11.028c-0.713-2.587-1.135-5.004-3.248-6.854c-2.268-1.985-5.39-2.419-8.478-2.222    c-0.828-1.867-1.821-5.463-2.221-6.806c-0.857-2.872-1.708-5.785-2.083-8.757c-0.662-5.254-0.234-13.66-5.957-16.3    c-1.35-0.624-2.888-0.59-3.995,0.515c-0.433,0.432-0.883,0.858-1.337,1.281c-0.129-0.887-0.515-1.744-1.172-2.425    c-0.713-0.738-0.871-1.631-1.342-2.841c-0.302-0.776-0.759-1.553-0.917-1.909c-0.307-0.689-0.609-1.026-0.775-1.51    c-0.488-1.426-2.399-1.417-2.89,0c-0.046,0.135-0.098,0.269-0.146,0.404c-1.22,1.207-2.045,3.014-2.277,4.707    c-0.374,2.725,0.559,5.149,2.266,7.231c0.53,0.645,1.27,1.015,2.068,1.165c-2.834,2.842-5.217,5.996-5.819,10.185    c-0.962,6.701,3.055,15.941,7.274,21.41c-2.086,0.611-4.165,1.003-6.515,1.599c-1.353,0.343-2.634,1.548-2.937,2.937    c-3.251,14.922,7.503,26.36,14.044,38.499c-0.259,0.102-0.516,0.209-0.777,0.305c-2.782,1.015-5.337,1.852-7.095,4.378    c-1.303,1.875-1.431,3.955-1.708,6.191c-0.626,5.045-1.603,10.248-1.27,15.348c0.618,9.453,4.03,18.961,5.675,28.314    c0.727,4.135,1.488,8.045,1.737,12.208c0.183,3.075,1.871,4.832,2.332,7.707c0.655,4.098,0.567,9.257,3.932,12.057    c-0.457,0.952-0.92,1.901-1.366,2.858c-2.874,6.166-6.523,11.971-9.257,18.177c-1.074,2.438-1.43,5.071-2.54,7.451    c-0.017,0.036-0.033,0.066-0.049,0.1c-1.871,0.132-3.747,0.281-5.63,0.448c-2.885,0.259-5.785,0.37-8.691,0.404    c0.207-4.757-1.999-10.16-3.37-14.256c-2.701-8.07-4.755-16.422-8.08-24.266c-2.345-5.536-5.143-14.075-9.79-18.747    c9.763-3.025,27.531-3.952,21.103-18.326c-6.42-14.358-10.237-30.064-18.06-43.763c-0.689-1.208-2.384-1.995-3.75-1.526    c-8.726,2.999-17.683,5.536-26.236,9.006c-4.884-17.756-31.178-33.478-47.353-21.043c-1.36,1.046-2.526,2.256-3.54,3.578    c-0.37,0.318-0.684,0.602-0.918,0.829c-9.882,9.59-9.729,24.206-8.477,37.26c-3.328,0.765-6.194,1.691-9.699,3.82    c-3.549,2.155-7.101,4.374-10.571,6.658c-2.347,1.545-3.877,3.359-4.842,5.372c-1.649,0.861-3.006,1.97-3.735,3.536    c-1.171,2.518-0.297,4.898,0.619,7.325c1.593,4.218,1.922,8.673,3.575,12.881c2.281,5.807,3.577,11.231,5.27,17.203    c1.168,4.122,2.853,9.15,7.48,10.362c1.407,0.369,3.243,0.048,4.228-1.116c0.387-0.459,0.766-0.953,1.155-1.446    c0.338-0.124,0.681-0.267,1.032-0.449c0.474-0.245,0.876-0.595,1.211-1.006c5.642-0.303,11.713-2.79,16.784-3.57    c2.924-0.449,6.762-1.583,9.689-3.471c0.396,0.949,0.869,1.896,1.337,2.893c2.083,4.445,3.562,9.371,5.047,14.038    c2.188,6.878,3.292,15.183,6.164,22.114c-4.935-0.057-9.913-0.408-14.636-0.543c-3.099-0.088-6.09-0.269-9.167,0.189    c-3.54,0.529-6.756,1.745-10.37,1.67c-5.245-0.109-10.559-1.052-15.696,0.566c-5.712,1.798-8.601,6.668-7.902,12.548    c0.316,2.656,1.519,4.977,2.06,7.567c0.932,4.481,0.332,9.414,0.37,13.98c0.068,7.814,1.157,14.4,2.384,22.013    c1.318,8.183-0.243,16.701-0.415,24.914c-0.17,8.049-0.145,16.119-0.124,24.172c0.01,3.675,0.317,7.424,0.02,11.091    c-0.37,4.557-1.74,8.948-2.031,13.531c-0.47,7.439,0.059,14.941-0.058,22.39c-0.141,8.857-1.831,17.587-1.967,26.447    c-0.317,20.398-0.223,40.809-0.52,61.21c-0.109,7.524-0.738,15.18-0.48,22.699c0.241,7.033,2.503,13.431,9.935,15.332    c1.819,0.465,3.646-0.197,4.831-1.444c5.257,1.771,11.165,2.75,16.452,3.613c1.51,0.246,3.027,0.381,4.547,0.464    c-0.802,5.205-1.041,10.964,3.206,14.444c3.141,2.574,6.548,1.964,10.277,2.568c4.65,0.754,8.355,2.293,13.168,1.418    c2.74-0.499,5.84-2.114,8.675-1.557c2.001,0.394,3.792,2.121,5.702,2.847c2.63,0.999,5.694,1.313,8.194-0.277    c2.308-1.468,3.065-4.011,3.629-6.509c0.777-3.446,1.74-6.963,2.128-10.5c10.95,0.061,21.877-0.176,32.817-1.364    c15.187-1.651,30.248,1.284,45.437,0.729c7.171-0.262,14.167-1.858,21.314-2.376c8.622-0.628,17.277-0.423,25.911-0.186    c16.516,0.454,33.037,0.464,49.56,0.488c16.657,0.022,33.316-0.085,49.973,0.025c7.655,0.051,14.83-0.823,22.419-1.531    c8.043-0.75,15.869,1.074,23.862,1.522c8.965,0.504,16.857-0.759,25.633-1.803c2.791-0.333,5.633-0.426,8.492-0.417    c-1.223,3.924-1.868,8.301-1.09,11.822c0.623,2.817,2.732,4.895,5.645,5.262c1.775,0.224,3.812-0.54,5.671-0.401    c2.639,0.194,5.229,0.909,7.868,1.178c6.008,0.611,11.912,0.676,17.914,1.584c4.29,0.649,9.56,1.766,13.704-0.058    c2.876-1.265,4.179-3.763,4.448-6.781c0.173-1.949-0.161-3.87,0.088-5.823c0.27-2.125,0.895-4.073,1.234-6.145    c3.031-0.058,6.061-0.194,9.089-0.505c14.09-1.443,25.849-6.293,28.898-21.399c2.458-12.178,0.59-25.284,0.275-37.603    c-0.225-8.815,1.807-17.004,2.967-25.684c1.331-9.951,0.937-19.968,0.931-29.985C505.584,335.908,505.756,297.39,505.815,258.879z     M463.229,130.547c1.208-0.985,3.089-2.265,4.061-3.43c0,0,0.017-0.009,0.026-0.012c-0.66,2.532-0.083,6.864-0.204,9    c-0.282,4.988-0.483,9.917,0.067,14.895c0.809,7.338,3.052,14.58,3.102,21.991c0.032,4.805-0.68,9.615-0.767,14.421    c-0.078,4.224-0.15,9.205,1.43,13.205c0.256,0.646,0.618,1.291,1.046,1.907c-2.581,0.111-5.148,0.299-7.726,0.579    c-0.318-2.743-0.902-5.493-1.16-7.742c-0.921-8.068-1.439-16.469-1.738-24.587c-0.129-3.499,0.266-7.07-0.116-10.549    c-0.352-3.197-1.437-6.208-1.826-9.393c-0.433-3.545-1.566-5.394-5.422-5.789c-2.771-0.283-5.18,0.859-7.704,1.826    c-3.664,1.402-7.486,2.654-11.343,3.44c-7.473,1.525-14.839,3.016-22.249,4.935c-7.863,2.037-15.567,4.422-23.596,5.754    c-8.123,1.347-16.387,2.021-24.589,2.863c0.342-2.109,0.594-4.218,0.709-6.294c6.453,1.847,12.546,0.412,19.233-1.214    c8.769-2.135,17.664-3.734,26.409-5.961c7.444-1.897,15.529-4.078,22.285-7.799c2.838-1.563,5.444-3.222,8.548-4.253    c4.367-1.451,8.986-1.995,13.348-3.474C458.059,133.846,460.761,132.563,463.229,130.547z M454.861,154.691    c0.326,3.01,1.11,5.747,0.892,8.834c-0.229,3.224-0.437,6.387-0.361,9.626c0.231,10.141,0.337,20.82,2.776,30.805    c-0.124,0.022-0.246,0.036-0.37,0.059c-9.789,1.749-20.712,0.413-30.47-0.923c-10.122-1.388-20.217-0.296-30.376-0.15    c-11.338,0.162-22.662,0.283-33.987,0.9c-3.086,0.17-6.182,0.511-9.276,0.8c0.275-3.175,0.349-6.411,0.99-9.203    c1.564-6.815,5.011-12.974,7.023-19.64c1-3.313,1.891-6.812,2.542-10.336c13.008,1.102,25.882,0.339,38.582-2.994    c6.643-1.744,13.293-3.411,19.966-5.042c6.42-1.568,12.953-2.452,19.287-4.331c2.55-0.755,5.31-2.383,7.856-2.89    c2.053-0.41,4.049-0.645,4.91,1.371C455.17,152.334,454.759,153.752,454.861,154.691z M368.954,151.582    c3.596-1.503,7.227-2.369,10.825-3.735c8.465-3.214,17.478-5.783,25.771-9.448c13.788-6.093,29.891-11.482,40.986-22.017    c2.294,2.62,2.829,7.103,3.388,10.961c-1.615,0.41-3.248,0.748-4.81,1.133c-8.772,2.152-15.808,6.998-24.259,9.846    c-9.105,3.068-18.32,5.145-27.609,7.553c-5,1.295-9.979,2.638-14.842,4.375c-1.995,0.713-9.548,4.164-13.159,3.792    c-0.012-0.375-0.025-0.748-0.035-1.116C366.43,152.58,367.652,152.128,368.954,151.582z M319.175,84.577    c0.5-10.845,6.566-20.065,12.38-28.84c5.596-8.445,13.023-15.515,20.577-22.143c3.854-3.38,7.234-7.304,10.092-11.559    c0.223-0.333,0.421-0.654,0.608-0.972c0.417,1.133,0.848,2.253,1.359,3.317c2.141,4.461,5.546,8.012,8.679,11.771    c6.69,8.025,14.609,17.208,15.026,28.224c0.174,4.627-2.342,8.934-2.385,13.614c-0.026,2.779,0.433,5.047-0.326,7.809    c-0.66,2.401-1.8,4.828-2.675,7.164c-2.727,7.278-7.733,12.975-12.104,19.153c-0.298-0.048-0.611-0.061-0.939-0.016    c-3.551,0.489-6.14,3.643-8.011,6.447c-0.478,0.718-1.024,1.672-1.506,2.729c-0.269-0.014-0.511-0.049-0.795-0.048    c-6.984,0.005-13.565-2.437-20.401-3.935c-2.912-0.639-5.77-1.615-8.706-2.095c-1.816-0.297-3.745-0.281-5.649-0.375    c0.092-0.887-0.254-1.793-1.21-2.281c-0.187-3.45-0.313-7.046-0.969-10.407C321.049,96.135,318.887,90.836,319.175,84.577z     M310.522,140.097c3.016-5.958,3.961-12.486,7.686-18.046c3.891,0.98,7.85,0.9,11.901,1.905    c5.859,1.453,11.716,3.082,17.537,4.702c2.578,0.717,5.427,1.633,8.137,1.739c0.828,0.032,2.01-0.354,2.791-0.189    c2.244,0.474,1.214-0.321,1.573,1.883c0.572,3.511-1.81,9.047-2.896,12.345c-1.803,5.473-0.559,11.142-1.412,16.779    c-0.936,6.182-2.485,12.266-4.795,18.077c-2.204,5.549-4.561,10.951-5.55,16.88c-0.469,2.811-0.672,5.648-0.973,8.478    c-0.012,0.118-0.019,0.259-0.029,0.387c-0.22-0.01-0.442-0.017-0.662-0.027c-0.114-2.359-0.28-4.718-0.406-7.053    c-0.343-6.397,0.214-11.961,1.425-18.201c1.802-9.288-0.338-17.051-9.72-20.749c-9.866-3.889-21.024-2.853-31.469-2.608    C306.778,151.414,307.769,145.538,310.522,140.097z M252.968,233.694c-1.607,4.745-20.734,2.415-24.898,2.442    c-7.987,0.053-16.889,2.177-23.521-3.395c-4.604-3.869-4.365-11.396-4.632-17.691c0.792-0.047,1.659,0.109,2.338,0.106    c1.553-0.007,3.146,0.252,4.591-0.451c0.319-0.155,0.529-0.417,0.687-0.709c0.277,2.19,0.562,4.37,0.961,6.548    c-2.652,3.093-1.358,9.273,3.89,9.113c7.222-0.22,14.411-1.574,21.619-0.661c4.611,0.585,10.064,1.603,13.793-2.015    c2.707-2.624,3.629-6.571,3.763-10.914c1.239,0.207,2.495,0.368,3.754,0.496c-0.533,0.29-0.998,0.699-1.302,1.183    c-1.225,1.945-2.154,4.089-2.368,6.414C251.375,227.087,253.863,231.047,252.968,233.694z M250.991,206.521    c-0.442-3.869-0.962-7.556-0.925-10.455c0.038-2.978-0.147-4.395,3.126-4.592c3.519-0.212,7.348,1.234,10.83,1.704    c7.774,1.052,16.208,0.559,24.05,0.396c2.865-0.059,6.656-0.079,9.245-1.55c0.448,0.026,0.809,0.023,1.133,0.006    c0.085,1.228,0.623,3.053,0.797,3.804c0.796,3.435,1.043,6.586,0.834,9.642c-0.932-0.433-1.946-0.677-2.841-0.66l-29.974,0.555    C262.142,205.468,256.405,205.55,250.991,206.521z M290.445,224.56c0.006-0.663,0.095-4.009,0.505-7.001    c1.988,0.036,3.978,0.074,5.967,0.11c-0.273,0.645-0.556,1.293-0.86,1.951c-1.277,2.771-0.386,6.387,2.935,7.214    c9.427,2.345,20.124,1.036,29.813,1.291c7.404,0.194,11.786-3.044,13.794-8.548c0.033,0.256,0.066,0.509,0.103,0.766    c0.402,2.816,2.146,7.008,1.995,9.839c-0.241,4.524-5.973,4.297-9.633,4.969c-4.434,0.813-8.949,0.567-13.452,0.558    c-8.49-0.019-17.795,0.302-26.158-1.265C290.366,233.49,290.394,229.035,290.445,224.56z M253.277,165.924    c8.419-0.229,16.255-2.998,24.826-2.181c4.292,0.408,8.477,1.56,12.789,1.952c5.419,0.493,10.865,0.352,16.297,0.231    c6.838-0.152,22.207-2.166,27.529,3.78c2.54,2.837,0.847,7.351,0.174,10.606c-0.91,4.403-1.329,8.746-1.369,13.245    c-0.043,4.81,0.093,9.62,0.051,14.429c-0.036,3.92,0.667,9.143-3.983,9.606c-3.836,0.382-7.835-0.489-11.721-0.255    c-3.554,0.213-7.147,0.651-10.714,0.602c2.037-5.768,3.362-11.75,2.602-17.945c-0.413-3.378-1.592-6.585-2.057-9.94    c-0.311-2.243-0.354-4.124-2.15-5.802c-2.152-2.013-5.499-2.078-8.216-1.64c-2.145,0.345-4.104,1.4-6.236,1.753    c-2.482,0.411-5.19,0.165-7.688,0.155c-4.353-0.015-8.69,0.255-13.038,0.283c-4.914,0.031-9.512-1.311-14.358-1.891    c-5.415-0.649-10.991,0.198-13.53,5.591c-2.182,4.638-1.29,10.851-1.041,15.801c0.085,1.69,0.277,3.395,0.444,5.103    c-0.227,0.114-0.458,0.219-0.68,0.339c-1.133,0.615-1.133,2.393,0,3.006c0.309,0.168,0.631,0.319,0.949,0.474    c0.025,0.764,0.03,1.524-0.01,2.284c-0.217,4.224-1.666,4.113-5.399,3.531c-6.763-1.057-13.301-0.568-20.01-0.322    c0.285-1.758,0.47-3.539,0.526-5.382c0.158-5.148-1.012-10.012-1.366-15.111c-0.342-4.939,0.003-9.98,0.076-14.926    c0.067-4.535-0.521-9.37,0.074-13.866c1.071-8.081,9.996-5.974,16.009-4.953C239.157,165.684,246.053,166.119,253.277,165.924z     M242.291,156.286c-1.876-0.098-3.749-0.275-5.628-0.593c-2.092-0.355-4.312-0.796-6.577-1.165c1.15-2.509,2.201-5.076,3.355-7.58    c0.63-1.366,0.68-2.93,1.234-4.321c0.019,0.464,0.194,0.923,0.599,1.3c2.17,2.021,4.81,3.383,7.659,4.18    c0.508,0.141,1.057,0.286,1.621,0.422c-0.552,0.74-1.16,1.437-1.863,2.056C241.052,152.024,241.148,154.559,242.291,156.286z     M248.974,140.168c-0.483,0.969-0.939,1.978-1.407,2.985c-0.744-0.053-1.511-0.072-2.313-0.119    c-2.734-0.165-5.182-0.803-7.402-2.449c-0.54-0.4-1.11-0.438-1.619-0.262c0.827-1.06,1.76-2.238,2.094-2.753    c1.542-2.378,2.974-4.843,4.356-7.35c0.334,0.384,0.839,0.645,1.522,0.665c2.925,0.082,5.317,0.062,7.806,1.553    c0.441,0.264,0.894,0.444,1.353,0.588C251.882,135.346,250.265,137.577,248.974,140.168z M256.577,126.544    c-0.076,0.238-0.173,0.456-0.255,0.688c-0.415-0.007-0.821-0.031-1.177-0.127c-1.089-0.291-1.874-1.053-3.056-1.246    c-2.519-0.415-5.016,0.553-7.501,0.824c2.557-4.852,4.982-9.793,7.575-14.551c0.076-0.136,0.147-0.276,0.222-0.412    c0.123,0.758,0.701,1.462,1.72,1.572c2.798,0.302,4.909,2.583,7.459,3.791C259.844,120.169,257.706,122.955,256.577,126.544z     M263.753,111.943c-0.547-0.16-1.088-0.369-1.576-0.526c-2.722-0.873-5.153-1.922-8.072-1.751    c-0.266,0.016-0.499,0.076-0.704,0.161c1.803-3.379,3.551-6.784,5.32-10.178c2.162,0.793,4.658,0.507,6.905,1.496    c0.801,0.353,1.718,0.666,2.647,0.855C266.52,105.213,264.903,108.524,263.753,111.943z M271.827,95.722    c-0.826-0.156-1.745,0.029-2.515,0.668c0.459-0.38-0.472-0.326-0.887-0.43c-0.845-0.212-1.664-0.504-2.521-0.662    c-1.307-0.24-3.451,0.417-5.065,0.358c1.666-3.12,3.364-6.221,5.195-9.257c0.386-0.642,0.797-1.279,1.22-1.915    c1.597,1.803,3.407,3.259,5.826,4.047c0.75,0.244,1.587,0.459,2.453,0.616C274.326,91.348,273.083,93.532,271.827,95.722z     M283.3,73.575c0.048,0.022,0.095,0.042,0.144,0.063c-0.151,0.327-0.264,0.579-0.269,0.587c-1.197,2.384-2.431,4.748-3.597,7.147    c-0.431,0.885-0.88,1.753-1.324,2.625c-0.943-0.085-1.893-0.135-2.8-0.288c-2.244-0.381-4.136-1.297-5.71-2.859    c1.78-2.604,3.473-5.283,4.435-8.223C277.336,73.313,280.621,73.877,283.3,73.575z M171.701,15.29    c1.517,3.8,1.311,14.337,1.81,17.136c0.516,2.898,1.187,6.331,2.675,8.792c-2.732,0.855-5.3,2.097-7.878,3.364    c-0.017,0.009-0.035,0.016-0.052,0.025c-0.324-1.748-0.254-4.988-0.51-5.976c-0.912-3.506-2.525-6.821-3.213-10.392    C163.443,22.598,167.838,18.888,171.701,15.29z M162.52,55.161c3.743-1.014,7.03-1.961,10.729-3.988    c2.644-1.449,11.667-5.778,14.603-2.792c1.074,1.092,1.348,5.635,1.951,7.194c0.965,2.493,2.199,4.875,3,7.435    c1.068,3.411,1.402,6.951,1.899,10.472c0.184,1.314,0.488,2.461,0.852,3.573c-5.18,1.557-10.172,4.015-14.951,6.327    c-2.103,1.017-4.167,2.152-6.253,3.232c-0.148-4.16-2.74-8.519-4.842-11.771C165.895,69.255,161.97,62.132,162.52,55.161z     M167.149,113.794c5.846-0.707,11.126-2.889,16.698-5.181c2.976-1.224,5.815-2.701,8.728-4.058    c3.556-1.657,7.554-2.383,11.304-3.565c1.667-0.526,2.048-3.483,0-3.776c-13.307-1.901-24.413,11.057-37.134,13.739    c-0.335-2.437-0.651-4.894-0.984-7.403c-0.495-3.743-0.694-6.133,3.124-7.826c2.29-1.015,4.836-1.373,7.166-2.483    c7.122-3.39,14.104-7.319,21.703-9.586c0.309-0.093,0.715-0.224,1.155-0.361c0.692,0.166,1.433-0.026,1.97-0.571    c1.43-0.366,2.906-0.605,3.759-0.248c2.593,1.089,2.846,5.967,3.724,8.355c1.206,3.275,2.367,7.306,4.061,10.836    c-0.62,1.35-1.241,2.701-1.878,4.041c-0.344,0.727-0.701,1.446-1.068,2.157c-0.582-0.491-1.369-0.736-2.317-0.468    c-0.012,0.004-0.02,0.007-0.031,0.011c-7.808,1.008-14.143,3.502-21.164,7.092c-5.571,2.85-12.149,4.804-17.193,8.684    C168.126,120.036,167.609,116.923,167.149,113.794z M169.522,126.584c-0.019-0.078-0.033-0.155-0.052-0.233    c4.857-3.711,11.992-4.864,17.566-7.076c6.65-2.64,12.642-4.833,19.54-6.22c-5.216,8.725-11.531,16.698-16.069,25.835    c-5.446,10.96-11.429,21.687-16.878,32.655c0.245-3.515,1.737-7.143,1.531-10.668c-0.119-2.036-1.116-3.521-1.301-5.404    c-0.26-2.666-0.074-5.2-0.582-7.95C171.991,140.55,171.16,133.493,169.522,126.584z M173.237,191.53    c5.377-9.563,9.83-19.719,15.125-29.364c5.327-9.704,9.694-20.01,15.947-29.163c5.731-8.389,10.732-16.569,15.126-25.657    c0.399-0.318,0.736-0.738,0.944-1.253c0.236-0.585,0.387-1.183,0.504-1.786c4.156-8.92,8.438-18.273,13.814-26.469    c1.088-1.657,2.542-3.057,3.53-4.785c0.697-1.22,1.359-4.752,2.484-5.51c2.067-1.397,9.451,1.272,11.721,1.583    c5.292,0.725,10.609,1.136,15.855,2.183c1.047,0.209,2.196,0.477,3.389,0.753c-1.364,2.743-3.113,5.358-4.95,7.923    c-0.616,0.35-1.088,0.954-1.168,1.618c-1.874,2.568-3.77,5.104-5.383,7.686c-1.155,1.85-2.259,3.727-3.336,5.616    c-0.64,0.381-1.074,1.084-1.041,1.85c-3.182,5.703-6.142,11.522-9.324,17.249c-4.504,8.108-8.483,16.581-13.863,24.136    c-1.918,2.695-2.134,5.111-3.577,7.977c-1.456,2.895-2.395,4.91-3.243,7.847c-4.207-0.391-8.405-0.193-12.104,1.613    c-10.037,4.9-8.664,18.401-8.631,27.72c0.026,7.277-0.223,14.523,1.156,21.7c0.395,2.052,0.677,4.087,0.941,6.114    c-0.22-0.318-0.477-0.616-0.777-0.887c0.36-1.744-0.422-3.807-2.363-4.146c-12.64-2.201-25.037-2.721-37.586-2.23    C168.527,199.607,170.884,195.713,173.237,191.53z M123.395,164.304c1.183,2.48,2.3,4.971,3.229,7.558    c-0.942,0.041-1.884,0.224-2.869,0.587c-1.787,0.659-3.911,2.677-5.801,2.766c-2,0.094-2.646,3.206-0.495,3.656    c3.587,0.75,7.472-0.115,10.967-1.323c0.713,2.431,1.392,4.873,2.06,7.319c-0.329,0.152-0.66,0.312-0.989,0.473    c-0.738,0.358-1.547,0.751-2.269,1.047c-0.041,0.016-0.11,0.032-0.178,0.051c-1.363-1.193-4.271-0.412-4.063,1.78    c0.333,3.498,3.61,3.832,6.364,2.796c0.85-0.319,1.688-0.745,2.495-1.212c0.397,1.421,0.796,2.842,1.218,4.255    c0.972,3.247,1.207,7.369,2.107,11.028c-1.863-0.031-3.723-0.067-5.578-0.085c-2.421-0.025-4.822,0.085-7.215,0.256    c0.128-0.172,0.255-0.343,0.382-0.515c0.671-0.901,0.37-2.456-0.411-3.192c-0.281-0.265-0.561-0.529-0.84-0.792    c-0.026-0.026-0.064-0.036-0.093-0.059c-1.472-3.686-3.674-7.039-5.385-10.639c-2.199-4.628-3.075-9.303-4.731-14.074    c-1.698-4.891-3.087-9.99-4.082-15.079c-0.506-2.588-0.792-5.132-1.358-7.61c1.948-0.52,3.886-1.09,5.814-1.707    c2.509,0.084,4.727,0.615,6.145,1.935c1.317,1.225,2.332,3.326,3.216,5.404c-3.426,1.006-7.033,3.415-9.745,4.049    c-1.932,0.452-1.558,3.661,0.477,3.514c2.899-0.212,5.62-0.701,8.439-1.392C121.187,164.856,122.301,164.622,123.395,164.304z     M53.164,81.463c5.059-5.684,15.203-2.977,20.904,0.152c3.717,2.039,6.337,4.153,7.761,8.202c1.12,3.186,1.827,5.854,3.62,8.371    c-4.758,2.454-9.479,4.979-14.491,6.894c-7.269,2.775-14.365,5.852-21.524,8.846C48.642,103.821,45.603,89.958,53.164,81.463z     M48.158,114.46c-0.67,0.28-1.34,0.557-2.011,0.835c-0.246-0.816-0.489-1.651-0.725-2.503    C46.406,113.275,47.421,113.74,48.158,114.46z M60.405,158.723c-1-0.869-2.511-0.941-3.721-0.358    c-0.348,0.136-0.567,0.233-0.681,0.296c-0.724,0.085-1.411,0.313-2.056,0.688c-1.073,0.298-2.14,0.644-3.228,0.927    c-2.749,0.715-5.561,1.146-8.299,1.884c-3.209,0.866-5.588,2.388-8.381,4.118c-1.045,0.646-2.176,1.461-3.339,2.289    c-0.193-0.026-0.379-0.033-0.567-0.046c-1.305-2.053-2.849-4.077-3.825-6.082c-2.518-5.169-5.967-10.152-7.389-15.755    c-0.805-3.172-1.149-6.858-0.927-10.148c0.052-0.756,0.178-1.384,0.37-1.922c0.907-0.212,1.774-0.399,2.405-0.661    c2.948-1.224,5.455-3.072,8.221-4.627c3.57-2.005,7.369-2.971,11.221-4.247c6.731-2.227,13.114-5.312,19.617-8.101    c6.742-2.891,13.858-4.911,20.448-8.147c6.96-3.416,13.47-7.452,20.752-10.234c6.72-2.565,13.603-4.736,20.406-7.086    c6.059,11.711,7.798,25.246,13.299,37.256c0.509,1.109,3.376,5.431,2.759,6.462c-0.723,1.204-5.87,1.375-7.211,1.671    c-7.213,1.588-14.393,3.946-21.405,6.249c-1.43,0.469-2.854,0.863-4.279,1.225c-1.592,0.213-3.103,0.462-4.445,0.684    c-4.44,0.738-9.116,1.834-13.708,3.211c-1.189,0.332-2.375,0.703-3.556,1.13c-3.352,1.123-6.611,2.385-9.647,3.758    c-2.029,0.916-4.739,1.859-7.372,3.046C64.024,156.977,62.211,157.839,60.405,158.723z M69.603,173.845    c-0.68-1.659-3.692-6.43-3.221-7.685c0.526-1.397,4.927-2.843,6.975-3.713c0.213-0.067,0.422-0.144,0.636-0.208    c3.635-1.098,6.987-2.463,10.427-4.056c4.432-2.05,8.896-2.531,13.685-3.238c1.807-0.266,3.596-0.641,5.375-1.06    c0.573,3.748,0.389,7.722,0.842,11.416c0.589,4.794,1.65,9.258,2.832,13.926c1.014,3.999,1.599,7.706,3.193,11.564    c1.972,4.774,4.885,9.245,6.3,14.207c0.078,0.276,0.198,0.506,0.326,0.727c-4.717,0.454-9.423,0.964-14.194,1.026    c-7.113,0.09-13.608,0.343-20.633,1.543c-1.134,0.193-2.287,0.337-3.451,0.451c0.36-4.148-1.035-8.36-2.201-12.564    C74.409,188.651,72.574,181.091,69.603,173.845z M93.759,500.174c-0.525,2.275-0.177,4.17-2.678,3.794    c-2.029-0.305-4.041-2.437-6.168-2.982c-2.224-0.571-4.562-0.297-6.769,0.163c-3.329,0.694-6.147,1.932-9.632,1.546    c-2.76-0.305-5.379-1.316-8.16-1.539c-3.716-0.298-5.942-1.253-6.517-5.424c-0.189-1.378-0.182-2.785-0.177-4.195    c3.573-0.056,7.153-0.203,10.706,0.005c7.29,0.428,14.363,1.969,21.689,2.103c3.088,0.057,6.171,0.111,9.254,0.157    C94.935,495.953,94.249,498.043,93.759,500.174z M453.119,493.787c-0.308,1.968,0.227,4.2-0.157,6.077    c0,0.097,0,0.173,0.001,0.259c-1.494,0.042-2.985-0.001-4.474-0.137c-2.956-0.244-5.869-0.834-8.811-1.192    c-5.759-0.697-11.503-0.239-17.244-1.16c-2.889-0.463-5.594-0.562-8.383-0.258c-0.644-1.604-0.891-5.14-1.192-8.319    c4.469,0.162,8.944,0.449,13.312,0.447c3.312-0.002,6.738,0.151,10.182,0.251c1.326,0.126,2.716,0.124,4.166,0.076    c2.303,0.015,4.593-0.042,6.852-0.215c2.249-0.028,4.498-0.019,6.746-0.004C453.697,490.984,453.341,492.374,453.119,493.787z     M490.464,400.316c-0.76,7.113-2.823,14.035-3.394,21.168c-0.563,7.049-0.041,14.36,0.24,21.423    c0.311,7.795,3.419,23.569-4.321,28.89c-4.679,3.217-12.137,3.301-18.547,3.183c-0.758-0.283-1.619-0.387-2.499-0.266    c-1.15,0.16-4.193-0.541-5.995-0.374c-2.968,0.276-5.925,0.552-8.907,0.666c-7.715,0.291-15.491,0.048-23.212,0.071    c-7.338,0.021-14.746-0.637-22.075-0.21c-7.09,0.411-13.69,2.208-20.842,2.149c-7.389-0.062-14.522-1.124-21.867-1.645    c-7.517-0.535-14.556,1.27-21.994,1.66c-15.214,0.797-30.71,0.064-45.951,0.087c-15.566,0.022-31.131,0.128-46.697,0.141    c-14.858,0.015-29.792-1.081-44.614,0.387c-7.106,0.706-14.037,2.268-21.196,2.425c-7.436,0.163-14.856-0.486-22.277-0.855    c-14.543-0.727-28.658,2.019-43.156,2.532c-8.246,0.292-16.498,0.24-24.746,0.308c-8.107,0.067-15.986-1.38-24.052-1.545    c-8.262-0.17-16.1,1.229-24.266-0.486c-3.243-0.682-8.594,0.233-13.075-0.123c-0.594-3.607-0.582-7.591-0.538-11.062    c0.095-7.565-0.105-15.135-0.215-22.7c-0.239-16.384-0.251-32.766-0.372-49.151c-0.118-15.819,1.649-31.457,1.5-47.302    c-0.066-7.07,1.12-13.548,1.78-20.513c0.729-7.699,0.016-15.751-0.019-23.483c-0.066-14.384,2.188-29.643-0.71-43.802    c-1.461-7.131-1.215-14.057-1.03-21.325c0.093-3.589,0.254-7.117-0.236-10.691c-0.165-1.199-0.33-2.329-0.623-3.506    c-0.329-1.025-0.651-2.052-0.967-3.082c-0.003-0.109-0.009-0.193-0.014-0.29c1.162,0.033,2.975-0.127,3.511-0.121    c2.363,0.025,4.711,0.321,7.069,0.387c6.656,0.184,12.822-2.091,19.536-1.917c7.215,0.186,14.517,0.449,21.729,0.161    c7.529-0.302,14.585-2.123,22.185-2.065c8.523,0.067,16.815-1.737,25.309-1.926c8.883-0.197,17.854,0.389,26.713-0.438    c8.72-0.813,17.239-1.709,26.005-1.999c5.26-0.174,10.517-0.459,15.75-0.972c0.251,0.946,0.964,1.76,2.133,2.181l-0.297-0.127    c0.37,0.342,0.791,0.542,1.223,0.642c-0.922,6.585-1.598,13.669,3.239,18.566c7.442,7.538,16.349,6.463,26.135,6.427    c5.875-0.021,11.732,0.475,17.604,0.562c3.967,0.059,9.2,0.663,12.776-1.583c2.484-1.562,3.789-4.207,4.068-7.08    c0.228-2.349-0.666-4.307-0.87-6.591c-0.056-0.628-0.061-5.733,0.532-6.71c0.732-1.206,0.181-2.579-0.876-3.341    c-0.099-0.071-0.198-0.142-0.297-0.213c2.919,0.178,5.804,0.23,8.513,0.281c6.972,0.129,13.944,0.259,20.915,0.387    c-2.421,6.496-4.505,14.553-0.234,19.482c2.508,2.894,6.468,3.466,10.058,3.749c7.163,0.566,14.205,1.39,21.399,1.469    c5.83,0.064,11.704,0.555,17.441-0.589c4.516-0.902,9.09-0.552,12.577-4.12c2.758-2.822,2.935-6.242,2.247-9.943    c-0.75-4.036-1.178-8.102-1.681-12.157c0.271-0.231,0.529-0.483,0.748-0.774c0.072-0.095,0.129-0.199,0.197-0.296    c1.656,0.073,3.32,0.087,4.915,0.188c8.793,0.561,17.593,0.9,26.401,1.162c8.554,0.256,17.102,0.162,25.653-0.106    c8.309-0.261,16.109,0.584,24.323,1.565c15.182,1.811,29.703-0.792,44.757-0.874c2.566-0.014,5.257-0.301,7.814,0.052    c3.88,0.535,2.551,2.192,2.688,5.613c0.323,7.991,3.209,15.676,3.873,23.652c1.362,16.371-0.161,33.086-0.209,49.499    c-0.051,17.514-0.093,35.029-0.162,52.541C490.918,364.991,492.308,383.038,490.464,400.316z" fill="#933EC5"/>
	</g>
</g>
<g>
	<g>
		<path d="M56.481,454.867c-0.011-0.558-0.095-1.095-0.225-1.619c-0.012-0.078-0.02-0.158-0.033-0.235    c-0.011,0.003-0.022,0.005-0.032,0.009c-0.798-2.806-3.234-4.973-6.189-5.37c-1.595-0.214-3.378-0.01-4.771,0.889    c-1.516,0.977-3.176,2.6-3.438,4.473c-0.064,0.444-0.125,0.892-0.182,1.338c-0.224,1.003-0.179,2.003,0.135,3.005    c0.028,0.168,0.062,0.334,0.094,0.5c-0.021,0.051-0.043,0.103-0.064,0.153c-0.077,0.566-0.152,1.133-0.229,1.698    c-0.032,0.88,0.151,1.701,0.551,2.462c0.566,1.339,1.407,2.22,2.614,3.056c0.192,0.131,0.373,0.233,0.584,0.332    c1.567,0.727,3.329,1.222,5.059,0.662c1.706-0.552,2.89-1.555,3.925-3.018c1.475-2.089,2.06-4.687,2.186-7.227l0.084-0.621    C56.528,455.19,56.501,455.029,56.481,454.867z" fill="#933EC5"/>
	</g>
</g>
<g>
	<g>
		<path d="M464.802,445.23c-1.522-1.399-3.394-2.281-5.504-2.281c-1.996,0-4.092,0.869-5.504,2.281    c-1.35,1.35-2.367,3.565-2.28,5.503c0.09,2.014,0.751,4.102,2.28,5.504c1.522,1.399,3.395,2.28,5.504,2.28    c1.995,0,4.093-0.868,5.504-2.28c1.35-1.35,2.368-3.565,2.281-5.504C466.993,448.72,466.331,446.632,464.802,445.23z" fill="#933EC5"/>
	</g>
</g>
<g>
	<g>
		<path d="M53.308,258.634c-5.149,3.378-14.735,15.235-8.097,20.895c0.61,0.52,1.296,0.482,1.915,0    c2.66-2.071,2.6-5.332,4.208-8.173c1.588-2.805,3.44-5.611,5.635-7.977C59.213,260.962,56.292,256.676,53.308,258.634z" fill="#933EC5"/>
	</g>
</g>
<g>
	<g>
		<path d="M54.15,278.687c-2.239,3.605-6.109,6.375-9.004,9.502c-2.128,2.297-5.359,5.514-3.653,8.856    c1.119,2.187,4.213,1.407,4.908-0.644c0.885-2.605,3.291-4.62,5.025-6.69c2.467-2.943,5.492-5.612,6.789-9.31    C59.072,277.955,55.439,276.609,54.15,278.687z" fill="#933EC5"/>
	</g>
</g>
<g>
	<g>
		<path d="M52.584,293.424c-0.356,3.217-5.774,5.856-7.905,7.845c-2.591,2.415-4.974,5.317-2.966,8.83    c0.738,1.29,3.084,1.537,3.749,0c2.716-6.29,10.81-9.383,11.619-16.675C57.397,290.553,52.899,290.576,52.584,293.424z" fill="#933EC5"/>
	</g>
</g>
<g>
	<g>
		<path d="M51.486,310.757c-1.573,2.576-4.676,4.368-6.706,6.606c-1.729,1.905-4.55,6.795-1.076,8.582    c3.029,1.56,4.503-3.428,5.875-5.24c1.943-2.566,4.503-4.667,6.123-7.483C57.276,310.491,53.125,308.078,51.486,310.757z" fill="#933EC5"/>
	</g>
</g>
<g>
	<g>
		<path d="M47.592,354.257c-3.152,3.035-7.018,6.257-8.955,10.266c-0.594,1.23-0.552,2.446-0.949,3.696    c-0.558,1.767-1.087,2.454-0.79,4.427c0.411,2.725,4.388,2.832,5.618,0.735c0.533-0.91,1.365-1.598,1.848-2.576    c0.343-0.697,0.543-1.423,0.649-2.192c0.014-0.105,0.222-1.159,0.095-0.986c1.319-3.216,4.776-6.31,7.065-8.789    C54.996,355.777,50.608,351.351,47.592,354.257z" fill="#933EC5"/>
	</g>
</g>
<g>
	<g>
		<path d="M50.677,373.484c-0.209-0.998-1.229-1.618-2.181-1.66c-0.363-0.017-0.727-0.033-1.089-0.05    c-1.827-0.082-2.432,1.807-1.756,3.099c-0.86,1.47-2.072,2.745-2.977,4.203c-1.327,2.14-2.199,3.993-2.521,6.503    c-0.303,2.368,3.552,3.347,4.528,1.227c1.055-2.294,2.303-4.665,3.753-6.734C49.861,378.033,51.217,376.066,50.677,373.484z" fill="#933EC5"/>
	</g>
</g>
<g>
	<g>
		<path d="M128.088,456.722c-0.338-2.576-0.843-4.898-1.961-7.265c-1.1-2.336-5.066-0.686-4.197,1.77    c0.927,2.615,0.465,4.755,0.49,7.435c0.022,2.376,0.883,4.519,1.588,6.748c1.008,3.181,5.09,2.268,5.474-0.741    C129.832,461.944,128.438,459.397,128.088,456.722z" fill="#933EC5"/>
	</g>
</g>
<g>
	<g>
		<path d="M140.563,455.314c-0.447-2.364-0.225-4.784-0.24-7.174c-0.021-3.303-5.034-3.296-5.124,0    c-0.124,4.494-1.998,15.474,5.038,15.814c1.28,0.062,2.074-1.064,2.199-2.199C142.672,459.608,140.965,457.446,140.563,455.314z" fill="#933EC5"/>
	</g>
</g>
<g>
	<g>
		<path d="M154.337,450.141c-0.672-1.689-2.777-1.693-3.45,0c-1.472,3.7-1.956,8.806-1.042,12.662c0.647,2.734,4.887,2.737,5.534,0    C156.295,458.935,155.811,453.842,154.337,450.141z" fill="#933EC5"/>
	</g>
</g>
<g>
	<g>
		<path d="M170.085,458.908c-0.613-1.962-0.416-4.049-1.598-5.812c-0.524-0.78-1.456-1.527-2.472-1.418    c-0.343,0.037-0.684,0.076-1.026,0.113c-2.06,0.225-3.321,2.665-1.984,4.169c-0.119,1.54-0.088,3.169,0.322,4.593    c0.272,0.949,0.767,1.664,1.282,2.473c-0.415-0.652,0.005,0.198,0.125,0.431c0.255,0.499,0.577,0.902,0.936,1.332    c1.157,1.383,3.098,0.668,3.987-0.514C170.762,462.802,170.608,460.584,170.085,458.908z" fill="#933EC5"/>
	</g>
</g>
<g>
	<g>
		<path d="M209.463,459.395c-0.209-3.041,0.39-6.206-0.512-9.144c-0.202-0.656-0.777-1.407-1.514-1.514    c-0.348-0.049-0.696-0.1-1.043-0.15c-2.452-0.353-3.665,2.923-1.529,3.904c0.037,3.009-1.584,6.294,0.465,8.986    c0.618,0.811,1.503,1.332,2.556,1.041c0.151-0.042,0.302-0.084,0.453-0.126C209.782,461.991,210.092,460.489,209.463,459.395z" fill="#933EC5"/>
	</g>
</g>
<g>
	<g>
		<path d="M221.035,460.497c-0.12-0.035-0.244-0.059-0.365-0.09c-0.026-0.219-0.059-0.342,0.011-0.918    c0.108-0.87,0.626-2.36,0.858-3.471c0.537-2.574,0.137-5.333-2.864-5.843c-1.879-0.319-2.853,2.006-1.638,3.005    c-0.217,0.437-0.349,1.025-0.519,1.454c-0.489,1.232-1.057,2.478-1.369,3.768c-0.767,3.17,0.957,7.326,4.849,6.498    c0.796-0.17,1.493-0.912,1.687-1.687c0.099-0.368,0.186-0.738,0.26-1.109C222.094,461.418,221.747,460.686,221.035,460.497z" fill="#933EC5"/>
	</g>
</g>
<g>
	<g>
		<path d="M232.489,449.452c-2.794-0.46-4.191,3.15-2.107,4.461c0,0.171,0.007,0.339,0,0.401c-0.099,0.807-0.342,1.646-0.552,2.447    c-0.491,1.874-1.266,4.037-0.14,5.71c0.837,1.241,2.728,1.733,3.849,0.495c1.603-1.768,2.041-5.154,2.367-7.524    C236.269,452.793,235.454,449.942,232.489,449.452z" fill="#933EC5"/>
	</g>
</g>
<g>
	<g>
		<path d="M249.223,455.02c-0.499-1.281-1.385-1.983-2.755-2.098c-0.342-0.029-0.684-0.058-1.026-0.087    c-1.337-0.114-2.535,1.125-2.682,2.368c-0.114,0.959,0.243,1.811,0.907,2.394c-0.014,0.196-0.026,0.386-0.027,0.527    c-0.006,0.936,0.162,1.52,0.283,2.414c0.136,1.003,1.141,1.696,2,2c0.486,0.173,1.036,0.151,1.524,0c0.909-0.282,1.805-1.019,2-2    c0.187-0.935,0.416-1.81,0.38-2.779C249.791,456.805,249.567,455.904,249.223,455.02z" fill="#933EC5"/>
	</g>
</g>
<g>
	<g>
		<path d="M336.735,458.013c-0.296,0.342-0.715,0.505-0.309-0.125c0.028-0.043,0.048-0.109,0.073-0.16    c-0.301-0.261-0.848-0.683-0.834-0.684c0.526-0.031,0.854,0.022,1.053,0.119c0.155-0.535,0.26-1.15,0.366-1.562    c0.853-3.284,0.433-6.592,0.302-9.936c-0.141-3.625-5.623-3.657-5.656,0c-0.021,2.284,0.261,4.68-0.155,6.939    c-0.218,1.183-0.764,2.263-1.025,3.43c-0.543,2.427-0.069,5.746,2.917,6.225c1.208,0.193,2.603-0.114,3.219-1.311    c0.14-0.301,0.303-0.59,0.489-0.864C337.579,459.437,337.372,458.454,336.735,458.013z" fill="#933EC5"/>
	</g>
</g>
<g>
	<g>
		<path d="M336.715,457.165c-0.062,0.213-0.135,0.401-0.219,0.566c0.181,0.156,0.274,0.254,0.105,0.171    c0.053,0.026,0.083,0.079,0.131,0.114C336.966,457.743,337.117,457.362,336.715,457.165z" fill="#933EC5"/>
	</g>
</g>
<g>
	<g>
		<path d="M348.67,449.379c-0.103-3.822-5.883-3.837-5.946-0.001c-0.064,3.919-0.021,8.115,1.784,11.675    c1.282,2.531,4.687,1.047,4.901-1.328C349.716,456.335,348.764,452.793,348.67,449.379z" fill="#933EC5"/>
	</g>
</g>
<g>
</g>
<g>
</g>
<g>
</g>
<g>
</g>
<g>
</g>
<g>
</g>
<g>
</g>
<g>
</g>
<g>
</g>
<g>
</g>
<g>
</g>
<g>
</g>
<g>
</g>
<g>
</g>
<g>
</g>
</svg>
